<svg width="40" height="40" viewBox="0 0 40 40" fill="none" xmlns="http://www.w3.org/2000/svg">
<g clip-path="url(#clip0_1_2)">
<rect width="40" height="40" fill="white"/>
<rect width="40" height="40" fill="#272B30"/>
<path d="M3.5 22.25V21.5H2.75V20.75H2V18.5H2.75V17.75H3.5V17H7.25V17.75H4.25V18.5H3.5V20.75H4.25V21.5H5.75V20H5V19.25H7.25V22.25H3.5ZM8 22.25V18.5H8.75V17.75H9.5V17H11.75V17.75H12.5V18.5H13.25V22.25H11.75V20.75H9.5V22.25H8ZM9.5 20H11.75V18.5H11V17.75H10.25V18.5H9.5V20ZM14 22.25V17H15.5V17.75H16.25V18.5H17V17.75H17.75V17H19.25V22.25H17.75V19.25H17V20.75H16.25V19.25H15.5V22.25H14ZM20.75 22.25V21.5H22.25V17.75H20.75V17H25.25V17.75H23.75V21.5H25.25V22.25H20.75Z" fill="#E2EAFF"/>
<path d="M26 22.25V17H31.25V17.75H27.5V19.25H30.5V20H27.5V22.25H26ZM34.25 22.25V20H33.5V19.25H32.75V17H34.25V19.25H35.75V17H37.25V19.25H36.5V20H35.75V22.25H34.25Z" fill="#4799EB"/>
</g>
<defs>
<clipPath id="clip0_1_2">
<rect width="40" height="40" fill="white"/>
</clipPath>
</defs>
</svg>
